<?xml version="1.0" encoding="UTF-8" standalone="no"?>
<svg xmlns="http://www.w3.org/2000/svg" viewBox="0 0 512 512" width="512" height="512">
  <path d="M380.5 147.5c-15.5-29-37.4-50-65.9-63.7-23.5-11.3-51-17-82.1-17-31.5 0-59.1 5.9-82.8 17.5-28.5 14-50.3 35.1-65.6 64.3C68.8 178 62 212.2 62 252.5c0 40.1 6.8 74.1 21.9 103.9 15.3 30.3 37.1 51.5 65.6 64.3 23.7 11.7 51.3 17.6 82.8 17.6 15.9 0 30.8-1.4 44.8-4.2 13.7-2.7 26.5-6.9 38.3-12.4 23.1-10.4 41.2-26.6 54.1-48.7 9.5-16.2 16.4-35.6 20.7-57.9 1.5-8.1 2.7-16.7 3.5-25.6.4-4.9.8-9.9 1-15 .2-5.1.3-10.3.3-15.7 0-40.2-6.8-74.3-21.7-106z" fill="#ffffff" stroke="#1d1d1f" stroke-width="14"/>
  <path d="M387.2 147.1c-17-31.9-37.1-54.8-65.7-69.4-29.8-15.1-68-18.3-104.3-18.3-36.4 0-74.6 3.2-104.3 18.3-28.7 14.6-48.7 37.5-65.7 69.4C30.1 182.8 20 227.7 20 280c0 52.1 10.1 96.9 27.2 132.7 17 32 37.1 54.9 65.8 69.4 29.6 15.2 67.8 18.4 104.2 18.4 36.3 0 73.4-3.1 104-18.4 29.7-14.5 48.9-37.4 65.9-69.4 17.1-35.8 27.2-80.6 27.2-132.7-.1-52.3-10.2-97.2-27.3-133z" display="none" fill="#000000"/>
  <path d="M159 467.5c-30.1-8.8-55.3-25.4-72.5-48.5-18.7-24.9-29.9-57.4-33.4-94.9-1.1-11.8-1.7-24.1-1.7-36.9 0-43.7 7.4-85.2 19.8-112.6 14.1-31.1 35.2-52.6 63.3-64.6 19.9-8.5 43.1-13 69.3-13 26.4 0 49.6 4.4 69.2 13 28.1 12.1 49 33.5 63.1 64.6 12.4 27.5 19.8 68.9 19.8 112.7 0 12.7-.6 25-1.6 36.8-3.5 37.5-14.7 70-33.4 94.9-17.3 23.1-42.5 39.7-72.5 48.5-14.7 4.3-30.7 6.5-47.8 6.5-16.3 0-32.3-2.2-47-6.5z" display="none" fill="#000000"/>
  <path d="M415.9 146c1.7 7 2.5 14.3 2.5 21.9 0 36.7-19.4 67.3-48.2 83.9-15.2 8.6-29.5 18.5-43 29.6-.1-.7-.3-1.3-.4-2-.4-4.9-.8-9.9-1-15-.2-3.4-.2-6.7-.3-10.1 30.5-23.5 57.8-49.9 72.3-82.6 4.9-11.2 9.6-18.6 18.1-25.7zM129.2 450.1c.1.3.2.5.3.8-15.6-13.3-28.5-28.5-43.7-42.7-15.9-14.8-39.3-26.5-42.7-50.5-3.1-22.1 4.9-45.6 16.2-64.4 16.9-28.1 36-54.2 58.4-78.1 6.1-6.5 12.4-12.7 18.9-18.7.3.9.5 1.7.9 2.6 15.3 30.3 37.1 51.5 65.6 64.3 23.7 11.7 51.3 17.6 82.8 17.6 15.9 0 30.8-1.4 44.8-4.2-11.1 31.6-27.3 61.7-47.4 88.3-20.7 27.3-45.4 51.5-73.5 70.6-13 8.9-26.8 16.5-41.2 22.3-13.4 5.5-26.6 11.6-39.4 18z" display="none" fill="#000000" opacity=".4"/>
  <path d="M93.3 242c0-34.1 8.7-64.9 23.4-86.9-9.1 6.2-17.3 13.9-24.4 23.3-15 19.6-23 45.4-24.3 76.5-.4 9.1-.2 18.4.5 27.8 1.5 19.7 5.5 38 11.6 55.2 6 17 14.2 32.1 24.2 45.3 1.7 2.3 3.6 4.6 5.5 6.7-10-21.9-16.5-49.2-16.5-81.2 0-12.4 0-27.5 0-66.7z" display="none" fill="#000000" opacity=".2"/>
  <path d="M268 431.2c0-46.4 39.1-84 85.5-84 46.4 0 83 37.6 83 84s-37.6 84-84 84-84.5-37.6-84.5-84z" display="none" fill="#000000"/>
  <path d="M346.2 121.4c22.8 0 43 3.1 60.3 9.3 16.9 6.1 31.6 14.8 43.9 26.3-2.8-5.8-5.9-11.2-9.5-16.2-17-23.9-42.3-40.1-75.9-48.7-13.8-3.6-28.9-5.9-45.3-6.9-16.3-1-33.8-1-52.5 0-23.5 1.3-54.4 10.1-77.2 25-21.7 14.1-39.4 33.3-53 57.6-7.3 13.1-13.3 27.4-17.8 43-4.5 15.5-7.4 32.1-8.6 49.7-.6 9.1-.9 18.5-.9 28.1 0 25.2 2.5 48.4 7.1 69.4 4.6 20.9 11.4 39 20.2 54.3 8.8 15.4 19.4 28.4 31.9 39 12.6 10.7 26.8 18.7 42.6 24.1 15.8 5.4 33.2 8.1 52.2 8.1 13.6 0 27.5-1 41.6-3 14.2-2 28.1-4.9 41.6-8.9 10.7-3.1 20.7-6.9 30.1-11.4 9.3-4.5 17.8-9.7 25.6-15.6-15.7 5.7-33.1 8.5-51.9 8.5-36 0-64.3-9.7-85-29.2-20.7-19.4-31-44.6-31-75.4 0-19.8 3.7-37.1 11.1-51.8 7.4-14.8 17.5-26.9 30.4-36.4s28.3-16.5 46.2-21.3c17.9-4.8 37.4-7.1 58.3-7.1 14.3 0 27.4.9 39.4 2.8 12 1.9 23.1 4.5 33.1 7.9-14.5-15.5-33.5-27.5-57.2-35.8-20.5-7.2-44.5-10.7-72.1-10.7-25.5 0-48.2 3.4-68.2 10.2-20 6.8-37.9 16.5-53.7 29.1-15.8 12.6-29.4 27.6-40.8 45-11.4 17.4-20.7 36.9-27.7 58.3-7.1 21.3-12.1 43.8-15.2 67.3-1.5 11.8-2.3 24-2.3 36.5 0 21.9 1.8 41.9 5.5 60.2 3.7 18.3 9.1 35 16.3 50.2s16.3 28.9 27.1 41c10.9 12.1 23.4 22.4 37.5 30.8 14.2 8.4 30 14.9 47.5 19.4 17.5 4.6 36.4 6.8 56.6 6.8 33.1 0 61.8-6.7 86.2-20 24.4-13.4 44.4-32.5 60-57.3 15.6-24.9 27-55.3 34.3-91.3 2.2-11.1 3.9-22.6 5-34.6.6-6.5 1.1-13.2 1.4-20.2.3-6.9.5-14.2.5-21.7 0-32.6-4.1-62.1-12.2-88.3-8.2-26.3-19.7-49.1-34.6-68.5-14.9-19.4-32.6-34.5-53.2-45.3-20.6-10.7-43.3-16.1-68.2-16.1z" display="none" fill="#000000" opacity=".1"/>
  <path d="M358.2 444c6-11.5 9.5-24.6 9.5-38.8 0-46.4-37.6-84-84-84-46.4 0-84 37.6-84 84 0 14.2 3.5 27.3 9.5 38.8 0 0-15.1 1.9-21.9 7.2-5.7 4.4-12.4 10.8-15.6 22.5-7.7 0-11.7-3.6-11.7-18.4V227c0-14.8 0-48 11.7-48s31.3 19.2 37.5 19.2 6.3-7.2 6.3-26.4-15.9-33.5-47.4-45.5c-31.6-12-47.4-21.6-63.2-33.6s-27.7-27.5-27.7-38.3c0-10.8 13.9-31.2 31.6-31.2 18.8 0 15 20.4 47.5 20.4s58.3-13.2 76.3-20.4 35.5-15.6 51.5-15.6c15.9 0 32.7 16.8 31.1 69.5" display="none" fill="#000000" opacity=".1"/>
  <path d="M268.7 189l25.6-2.9s-.4-15.2 0-18.9c3.1-29.8-14.6-49.9-40.3-53.8-34.1-5.2-58.9 20.5-58.9 54.6 0 21.8 11.4 41.5 28.9 52.2 17.8 10.8 38.5 14.6 60.5 14.3l-1.2-14.3c-14.2 1.6-30.5-1.7-42.6-9.4-10.5-6.7-18.5-18.2-21.4-31 7.9 8.3 17.9 13.9 28.7 13.3 14.2-.7 27.5-9.9 33.7-22.7" fill="#ff87ff"/>
  <g transform="translate(-6 -15)">
    <path d="M407.5 188l12.2-6c-24.3-33-68.4-33-98-12.7-25.8 17.8-39.6 49.8-39.7 82.3-50.7 1-116-21.5-144.2-64.4l-11.5 7.6c33.5 51 112.4 73.8 168.9 68.4l2.7-14c-6.8-2.6-15.5-3.6-17.5-10.8-1.8-6.3 3.6-12.7 9.3-12.6 30.6.2 53.9-14.1 69.1-39.1l9 25.3c-2.5 6.5-14.8 33.6 0 53.5 12.8 17.1 42 9.4 49.7-2.2 7.9-12 4.7-25.7-10-31.5" transform="translate(28 15)" fill="#ffffff"/>
    <path d="M352.2 169.6c.2 7-5.3 12.8-12.3 13-7 .2-12.8-5.3-13-12.3-.2-7 5.3-12.8 12.3-13 6.9-.2 12.8 5.4 13 12.3z" transform="translate(28 15)" fill="#212121"/>
    <path d="M388.5 230l-7.4-26.3-19.4 27.6-24.5-9.8-7 19.8 30.4 10.7 27.9-22z" transform="translate(28 15)" fill="#ff87ff"/>
  </g>
  <path d="M376.3 239.2c-4.2 3.5-10 4.4-15.1 4.4-4.5 0-10.3-2.3-10.3-7.3 0-5.2 6.2-7.2 10.3-7.2 5.2 0 10.8 1.3 15.1 4.4v5.7z" fill="#ffea94"/>
  <path d="M376.3 231.8c-4.2-2.7-10-4.2-15.1-4.2-4.5 0-9.4 1.1-9.4 6.1 0 2.6.5 4.6 1.6 6a8.67 8.67 0 00-2.5 1.3v-1.5c0-5 4.7-8.1 10.3-8.1 5.2 0 10.8 1.3 15.1 4.4v-4z" fill="#c6ecff"/>
  <path d="M376.3 224.6c-4.2-2.7-10-4.2-15.1-4.2-4.5 0-9.4 1.1-9.4 6.1 0 2.6.5 4.6 1.6 6.1a9.4 9.4 0 00-2.5 1.3v-1.6c0-5 4.7-8.1 10.3-8.1 5.2 0 10.8 1.3 15.1 4.4v-4z" fill="#91d5ff"/>
  <path d="M376.3 217.3c-4.2-2.7-10-4.2-15.1-4.2-4.5 0-9.4 1.1-9.4 6.1 0 2.6.5 4.6 1.6 6a8.67 8.67 0 00-2.5 1.3v-1.5c0-5 4.7-8.1 10.3-8.1 5.2 0 10.8 1.3 15.1 4.4v-4z" fill="#f1beff"/>
</svg>